<svg xmlns="http://www.w3.org/2000/svg" xmlns:xlink="http://www.w3.org/1999/xlink" viewBox="0,0,256,256" width="30px" height="30px" fill-rule="nonzero"><g fill="#808080" fill-rule="nonzero" stroke="none" stroke-width="1" stroke-linecap="butt" stroke-linejoin="miter" stroke-miterlimit="10" stroke-dasharray="" stroke-dashoffset="0" font-family="none" font-weight="none" font-size="none" text-anchor="none" style="mix-blend-mode: normal"><g transform="scale(8.53333,8.53333)"><path d="M15,3c-6.627,0 -12,5.373 -12,12c0,6.627 5.373,12 12,12c6.627,0 12,-5.373 12,-12c0,-6.627 -5.373,-12 -12,-12zM21,16h-5v5c0,0.553 -0.448,1 -1,1c-0.552,0 -1,-0.447 -1,-1v-5h-5c-0.552,0 -1,-0.447 -1,-1c0,-0.553 0.448,-1 1,-1h5v-5c0,-0.553 0.448,-1 1,-1c0.552,0 1,0.447 1,1v5h5c0.552,0 1,0.447 1,1c0,0.553 -0.448,1 -1,1z"></path></g></g></svg>